<?xml version="1.0" encoding="utf-8"?>
<!DOCTYPE svg PUBLIC "-//W3C//DTD SVG 1.1//EN" "http://www.w3.org/Graphics/SVG/1.1/DTD/svg11.dtd">
<svg version="1.1" xmlns="http://www.w3.org/2000/svg" xmlns:xlink="http://www.w3.org/1999/xlink" width="32" height="32" viewBox="0 0 32 32">
	<path d="M19.584 17.14v2.224c0.405 0.177 0.868 0.38 1.387 0.609 0.52 0.227 1.054 0.462 1.606 0.703 0.551 0.242 1.109 0.48 1.672 0.723 0.564 0.241 1.101 0.464 1.607 0.676 0.506 0.207 0.963 0.393 1.368 0.559 0.406 0.166 0.734 0.291 0.987 0.379 0.532 0.191 0.965 0.479 1.295 0.867 0.329 0.386 0.587 0.777 0.778 1.187 0.228 0.469 0.393 0.963 0.494 1.483v2.414h-29.555v-2.414c0.115-0.52 0.284-1.014 0.512-1.483 0.19-0.41 0.451-0.801 0.78-1.187 0.33-0.388 0.753-0.676 1.273-0.867 0.266-0.088 0.615-0.216 1.046-0.39 0.432-0.172 0.913-0.368 1.444-0.588 0.532-0.221 1.094-0.459 1.684-0.713 0.589-0.256 1.175-0.506 1.756-0.76 0.583-0.255 1.134-0.493 1.654-0.722 0.521-0.23 0.977-0.432 1.369-0.608v-2.169c-0.025-0.099-0.066-0.256-0.123-0.464-0.058-0.209-0.117-0.421-0.181-0.637-0.075-0.251-0.165-0.524-0.266-0.816-0.367-0.684-0.659-1.459-0.874-2.327-0.215-0.868-0.324-1.791-0.324-2.766 0-1.281 0.137-2.364 0.409-3.251 0.274-0.888 0.644-1.609 1.114-2.166 0.468-0.558 1.016-0.965 1.644-1.217 0.627-0.255 1.301-0.38 2.023-0.38 0.71 0 1.378 0.12 2.005 0.37 0.628 0.248 1.179 0.646 1.654 1.197 0.476 0.552 0.848 1.272 1.122 2.168 0.274 0.891 0.409 1.987 0.409 3.278 0 0.951-0.105 1.852-0.314 2.708-0.209 0.856-0.498 1.625-0.865 2.311-0.101 0.314-0.197 0.612-0.284 0.89-0.076 0.243-0.147 0.474-0.209 0.692-0.064 0.226-0.095 0.388-0.095 0.488z" fill="#444444" />
</svg>
