<?xml version="1.0" encoding="utf-8"?>
<!DOCTYPE svg PUBLIC "-//W3C//DTD SVG 1.1//EN" "http://www.w3.org/Graphics/SVG/1.1/DTD/svg11.dtd">
<svg version="1.1" xmlns="http://www.w3.org/2000/svg" xmlns:xlink="http://www.w3.org/1999/xlink" width="32" height="32" viewBox="0 0 32 32">
	<path d="M28.748 7.043h-25.221c-0.647 0-1.172-0.525-1.172-1.172s0.525-1.172 1.172-1.172h25.221c0.647 0 1.172 0.525 1.172 1.172s-0.525 1.172-1.172 1.172z" fill="#444444" />
	<path d="M28.748 17.172h-25.221c-0.647 0-1.172-0.525-1.172-1.172s0.525-1.172 1.172-1.172h25.221c0.647 0 1.172 0.525 1.172 1.172s-0.525 1.172-1.172 1.172z" fill="#444444" />
	<path d="M28.748 27.576h-25.221c-0.647 0-1.172-0.525-1.172-1.172s0.525-1.172 1.172-1.172h25.221c0.647 0 1.172 0.525 1.172 1.172s-0.525 1.172-1.172 1.172z" fill="#444444" />
</svg>
